<svg height="512pt" viewBox="0 -31 512.00022 512" width="512pt" xmlns="http://www.w3.org/2000/svg"><path d="m248.394531 447.980469c2.347657 1.382812 4.976563 2.070312 7.605469 2.070312s5.257812-.6875 7.605469-2.070312c102.78125-60.449219 253.945312-188.375 248.238281-309.332031-3.53125-74.84375-61.304688-138.070313-134.78125-138.64453175-54.703125-.41796825-95.703125 32.78515575-121.0625 81.01953175-25.480469-48.460938-66.539062-81.429688-121.066406-81.01953175-73.457032.57421875-131.246094 63.78124975-134.777344 138.64453175-5.699219 120.835937 145.632812 248.988281 248.238281 309.332031zm-218.269531-307.921875c2.890625-61.273438 49.03125-109.613282 105.042969-110.050782.273437-.003906.542969-.003906.8125-.003906 56.949219 0 93.921875 52.179688 105.558593 94.007813 1.796876 6.5 7.714844 11.003906 14.460938 11.003906 6.757812 0 12.679688-4.515625 14.46875-11.03125.257812-.945313 26.6875-93.980469 105.574219-93.980469.261719 0 .523437 0 .789062.003906 56.011719.4375 102.152344 48.78125 105.039063 110.054688 5.890625 124.832031-185.039063 251.71875-225.875 277.382812-40.855469-25.65625-231.761719-152.429687-225.871094-277.386718zm0 0"/></svg>